#N canvas 40 166 652 361 10;
#X obj 11 177 route 0 1 2 3;
#X obj 11 42 t l b;
#X obj 50 78 f;
#X obj 81 78 + 1;
#X obj 50 104 mod 4;
#X obj 148 17 inlet fileArray;
#X obj 265 17 inlet envArray;
#X obj 148 104 s \$0-fileArr;
#X obj 163 198 r \$0-fileArr;
#X obj 265 103 s \$0-envArr;
#X obj 178 218 r \$0-envArr;
#X obj 11 260 s \$0-grain1;
#X obj 324 323 outlet~;
#X obj 29 240 s \$0-grain2;
#X obj 48 219 s \$0-grain3;
#X obj 67 200 s \$0-grain4;
#X obj 11 15 inlet startDurPitch;
#X obj 374 18 inlet envLength;
#X obj 193 239 r \$0-envLgt;
#X obj 374 41 s \$0-envLgt;
#X obj 300 198 r \$0-fileArr;
#X obj 315 218 r \$0-envArr;
#X obj 330 238 r \$0-envLgt;
#X obj 426 198 r \$0-fileArr;
#X obj 441 218 r \$0-envArr;
#X obj 454 240 r \$0-envLgt;
#X obj 544 198 r \$0-fileArr;
#X obj 559 218 r \$0-envArr;
#X obj 574 238 r \$0-envLgt;
#X obj 285 177 r \$0-grain2;
#X obj 411 177 r \$0-grain3;
#X obj 529 177 r \$0-grain4;
#X obj 148 177 r \$0-grain1;
#X obj 233 46 loadbang;
#X obj 166 79 symbol \$1;
#X obj 291 79 symbol \$2;
#X obj 148 260 16grain~;
#X obj 285 260 16grain~;
#X obj 411 260 16grain~;
#X obj 529 260 16grain~;
#X obj 11 147 cyclone/prepend;
#X connect 0 0 11 0;
#X connect 0 1 13 0;
#X connect 0 2 14 0;
#X connect 0 3 15 0;
#X connect 1 0 40 0;
#X connect 1 1 2 0;
#X connect 2 0 3 0;
#X connect 2 0 4 0;
#X connect 3 0 2 1;
#X connect 4 0 40 1;
#X connect 5 0 7 0;
#X connect 6 0 9 0;
#X connect 8 0 36 1;
#X connect 10 0 36 2;
#X connect 16 0 1 0;
#X connect 17 0 19 0;
#X connect 18 0 36 3;
#X connect 20 0 37 1;
#X connect 21 0 37 2;
#X connect 22 0 37 3;
#X connect 23 0 38 1;
#X connect 24 0 38 2;
#X connect 25 0 38 3;
#X connect 26 0 39 1;
#X connect 27 0 39 2;
#X connect 28 0 39 3;
#X connect 29 0 37 0;
#X connect 30 0 38 0;
#X connect 31 0 39 0;
#X connect 32 0 36 0;
#X connect 33 0 34 0;
#X connect 33 0 35 0;
#X connect 34 0 7 0;
#X connect 35 0 9 0;
#X connect 36 0 12 0;
#X connect 37 0 12 0;
#X connect 38 0 12 0;
#X connect 39 0 12 0;
#X connect 40 0 0 0;
