#N canvas 70 244 572 475 10;
#X obj 327 114 samplerate~;
#X obj 327 68 t b b;
#X obj 327 138 *;
#X floatatom 327 166 10 0 0 0 - - -;
#X msg 96 105 start 0;
#X obj 125 151 t b;
#X obj 122 223 spigot;
#X obj 186 199 tgl 15 0 empty empty loop_on/off 17 7 0 10 -262130 -1
-1 1 1;
#X obj 491 224 s maxSamples;
#X obj 275 114 * 1000;
#X text 387 91 seconds;
#X obj 90 245 t b;
#X obj 300 42 t b b;
#X obj 251 402 dac~;
#X obj 271 327 line~;
#X obj 271 285 tgl 15 0 empty empty dry_on/off 17 7 0 10 -261682 -1
-1 0 1;
#X obj 250 378 *~;
#X obj 278 378 *~;
#X obj 3 340 tabwrite~ \$1;
#X obj 354 91 f \$2;
#X obj 495 -7 loadbang;
#X obj 57 -6 inlet start;
#X obj 155 -6 inlet loop;
#X obj 271 260 inlet dry;
#X obj 194 425 outlet restart;
#X obj 101 426 outlet timer;
#X obj 101 357 f;
#X obj 127 357 + 1;
#X msg 135 306 0;
#X msg 101 306 1;
#X floatatom 101 402 7 0 0 0 - - -;
#X obj 101 328 metro 10;
#X obj 101 379 / 100;
#X obj 154 248 spigot;
#X msg 178 305 0;
#X obj 181 222 !- 1;
#X msg 57 60 stop;
#X obj 4 60 inlet~;
#X obj 400 -7 inlet seconds;
#X msg 271 306 \$1 20;
#X obj 11 91 s~ \$0-input;
#X obj 341 348 r~ \$0-input;
#X obj 57 15 route stop start;
#X obj 271 349 *~ 0.8;
#X obj 56 38 bng 15 250 50 0 empty empty empty 17 7 0 10 -262144 -1
-1;
#X obj 184 279 bng 15 250 50 0 empty empty empty 17 7 0 10 -262144
-1 -1;
#X obj 172 150 del;
#X floatatom 261 150 5 0 0 0 - - -;
#X msg 243 180 0;
#X obj 283 214 t b;
#X obj 283 239 s resetRange;
#X obj 491 201 change;
#X obj 371 241 s \$1;
#X msg 371 215 resize \$1;
#X obj 371 194 change;
#X connect 0 0 2 0;
#X connect 1 0 0 0;
#X connect 1 1 19 0;
#X connect 2 0 3 0;
#X connect 3 0 51 0;
#X connect 3 0 54 0;
#X connect 4 0 5 0;
#X connect 4 0 18 0;
#X connect 5 0 29 0;
#X connect 5 0 28 0;
#X connect 5 0 46 0;
#X connect 6 0 11 0;
#X connect 6 0 24 0;
#X connect 7 0 6 1;
#X connect 7 0 35 0;
#X connect 9 0 46 1;
#X connect 9 0 47 0;
#X connect 11 0 4 0;
#X connect 11 0 28 0;
#X connect 12 0 4 0;
#X connect 12 0 46 0;
#X connect 12 1 1 0;
#X connect 14 0 43 0;
#X connect 15 0 39 0;
#X connect 16 0 13 0;
#X connect 17 0 13 1;
#X connect 19 0 2 1;
#X connect 19 0 9 0;
#X connect 20 0 19 0;
#X connect 20 0 48 0;
#X connect 21 0 42 0;
#X connect 22 0 7 0;
#X connect 23 0 15 0;
#X connect 26 0 27 0;
#X connect 26 0 32 0;
#X connect 27 0 26 1;
#X connect 28 0 26 1;
#X connect 29 0 31 0;
#X connect 30 0 25 0;
#X connect 31 0 26 0;
#X connect 32 0 30 0;
#X connect 33 0 34 0;
#X connect 34 0 31 0;
#X connect 35 0 33 1;
#X connect 36 0 18 0;
#X connect 36 0 45 0;
#X connect 37 0 18 0;
#X connect 37 0 40 0;
#X connect 38 0 19 1;
#X connect 39 0 14 0;
#X connect 41 0 16 0;
#X connect 41 0 17 0;
#X connect 42 0 44 0;
#X connect 42 1 12 0;
#X connect 43 0 16 1;
#X connect 43 0 17 1;
#X connect 44 0 36 0;
#X connect 45 0 34 0;
#X connect 46 0 6 0;
#X connect 46 0 33 0;
#X connect 48 0 7 0;
#X connect 49 0 50 0;
#X connect 51 0 8 0;
#X connect 53 0 52 0;
#X connect 54 0 53 0;
#X connect 54 0 49 0;
