#N canvas 336 29 661 577 10;
#X obj 53 -137 dumpOSC 9999;
#X obj 51 -78 OSCroute /granita1;
#X obj 33 -24 OSCroute /pos /spd /dur /pitch /spread;
#X obj 174 37 OSCroute /start /end;
#X obj 322 37 OSCroute /start /end;
#X obj 493 37 OSCroute /start /end;
#X obj 32 35 OSCroute /start /end;
#X obj 23 78 unpack f;
#X obj 27 112 print pos-start;
#X obj 131 76 unpack f;
#X obj 135 110 print pos-end;
#X obj 13 206 s pos-start;
#X msg 310 -99 /granita1/pos/start 0;
#X obj 116 206 s pos-end;
#X msg 170 -132 /granita1/pos/end 0.5;
#X connect 0 0 1 0;
#X connect 1 0 2 0;
#X connect 2 0 6 0;
#X connect 2 1 3 0;
#X connect 2 2 4 0;
#X connect 2 3 5 0;
#X connect 6 0 7 0;
#X connect 6 1 9 0;
#X connect 7 0 8 0;
#X connect 7 0 11 0;
#X connect 9 0 10 0;
#X connect 9 0 13 0;
#X connect 12 0 1 0;
#X connect 14 0 1 0;
